# Export of SampleScene
# from Aaro4130 OBJ Exporter v2.0
mtllib Golden_Chest.mtl
g pasted__pasted__obj_Low_coin
v 1.819931 0.3264456 -1.340042
v -1.491998 0.4899828 -1.130983
v -1.81993 0.3264456 -1.340042
v -1.81993 0.3264456 1.273749
v 1.491999 0.4899828 -1.130983
v 1.819931 0.3264456 1.273749
v -1.491998 0.4899828 1.06469
v 1.491999 0.4899828 1.06469
v 0.9680238 0.639704 -0.7454332
v 0.9680238 0.639704 0.6791403
v -0.9680234 0.639704 -0.7454332
v -0.9680234 0.639704 0.6791403
v 1.899898E-07 0.775312 -0.03314646
vn 0.1689665 0.5311713 -0.1504683
vn -0.1187703 0.5376747 -0.1735882
vn -0.1689665 0.5311713 -0.1504681
vn -0.1689665 0.5311713 0.1504681
vn 0.1187703 0.5376747 -0.1735881
vn 0.1689665 0.5311713 0.1504682
vn -0.1187703 0.5376747 0.1735882
vn 0.1187704 0.5376747 0.1735881
vn 0.06993378 0.5639766 -0.1018473
vn 0.06993379 0.5639766 0.1018473
vn -0.06993385 0.5639766 -0.1018474
vn -0.06993384 0.5639766 0.1018473
vn 0 0.5773503 0
vt 0.9955561 0.4067504
vt 0.4891119 0.3747821
vt 0.4389661 0.4067504
vt 0.4389661 0.007061839
vt 0.9454103 0.3747821
vt 0.9955561 0.007061839
vt 0.4891119 0.03903008
vt 0.9454103 0.03903008
vt 0.8652867 0.3158255
vt 0.8652867 0.09798656
vt 0.5692357 0.3158255
vt 0.5692357 0.09798656
vt 0.7172614 0.206906
usemtl Tex_Low_TreasureChest_Frugality_Color
f 3/3/3 2/2/2 1/1/1
f 2/2/2 3/3/3 4/4/4
f 2/2/2 5/5/5 1/1/1
f 1/1/1 5/5/5 6/6/6
f 7/7/7 4/4/4 6/6/6
f 4/4/4 7/7/7 2/2/2
f 8/8/8 6/6/6 5/5/5
f 6/6/6 8/8/8 7/7/7
f 9/9/9 5/5/5 2/2/2
f 5/5/5 9/9/9 8/8/8
f 8/8/8 10/10/10 7/7/7
f 10/10/10 8/8/8 9/9/9
f 2/2/2 11/11/11 9/9/9
f 11/11/11 2/2/2 7/7/7
f 10/10/10 12/12/12 7/7/7
f 7/7/7 12/12/12 11/11/11
f 11/11/11 13/13/13 9/9/9
f 9/9/9 13/13/13 10/10/10
f 10/10/10 13/13/13 12/12/12
f 12/12/12 13/13/13 11/11/11
g pasted__pasted__obj_Low_box
v -1.966539 0.3264456 1.413864
v 1.966539 0.3264456 1.413864
v 1.966539 -1.581136 1.413864
v -1.966539 -1.581136 1.413864
v 1.966539 -1.581136 -1.480157
v -1.966539 0.3264456 -1.480157
v -1.966539 -1.581136 -1.480157
v 1.966539 0.3264456 -1.480157
v 1.966539 -1.581136 1.413864
v -1.966539 -1.581136 -1.480157
v -1.966539 -1.581136 1.413864
v 1.966539 -1.581136 -1.480157
v 1.966539 0.3264456 1.413864
v 1.966539 0.3264456 -1.480157
v 1.966539 -1.581136 1.413864
v 1.966539 -1.581136 -1.480157
v -1.966539 0.3264456 1.413864
v -1.966539 -1.581136 1.413864
v -1.966539 -1.581136 -1.480157
v -1.966539 0.3264456 -1.480157
v 1.819931 -1.389927 1.273749
v -1.81993 0.3264456 1.273749
v -1.81993 -1.389927 1.273749
v 1.819931 0.3264456 1.273749
v 1.819931 0.3264456 -1.340042
v -1.81993 -1.389927 -1.340042
v -1.81993 0.3264456 -1.340042
v 1.819931 -1.389927 -1.340042
v 1.819931 -1.389927 1.273749
v 1.819931 -1.389927 -1.340042
v 1.819931 0.3264456 1.273749
v 1.819931 0.3264456 -1.340042
v -1.81993 -1.389927 1.273749
v -1.81993 0.3264456 1.273749
v -1.81993 0.3264456 -1.340042
v -1.81993 -1.389927 -1.340042
v 1.819931 -1.389927 -1.340042
v 3.427267E-07 -1.389927 -0.03314652
v -1.81993 -1.389927 -1.340042
v 1.819931 -1.389927 1.273749
v -1.81993 -1.389927 1.273749
v 1.966539 0.3264456 1.413864
v -1.966539 0.3264456 1.413864
v -1.81993 0.3264456 1.273749
v -1.966539 0.3264456 -1.480157
v 1.819931 0.3264456 1.273749
v -1.81993 0.3264456 -1.340042
v 1.819931 0.3264456 -1.340042
v 1.966539 0.3264456 -1.480157
vn 0 0 0.5773503
vn 0 0 0.5773503
vn 0 0 0.5773503
vn 0 0 0.5773503
vn 0 0 -0.5773503
vn 0 0 -0.5773503
vn 0 0 -0.5773503
vn 0 0 -0.5773503
vn 0 -0.5773503 0
vn 0 -0.5773503 0
vn 0 -0.5773503 0
vn 0 -0.5773503 0
vn 0.5773503 0 0
vn 0.5773503 0 0
vn 0.5773503 0 0
vn 0.5773503 0 0
vn -0.5773503 1.634085E-07 0
vn -0.5773503 1.634085E-07 0
vn -0.5773503 1.634085E-07 0
vn -0.5773503 1.634085E-07 0
vn 0 0 -0.5773503
vn 0 0 -0.5773503
vn 0 0 -0.5773503
vn 0 0 -0.5773503
vn 0 0 0.5773503
vn 0 0 0.5773503
vn 0 0 0.5773503
vn 0 0 0.5773503
vn -0.5773503 0 0
vn -0.5773503 0 0
vn -0.5773503 0 0
vn -0.5773503 0 0
vn 0.5773503 0 0
vn 0.5773503 0 0
vn 0.5773503 0 0
vn 0.5773503 0 0
vn 0 0.5773503 0
vn 0 0.5773503 0
vn 0 0.5773503 0
vn 0 0.5773503 0
vn 0 0.5773503 0
vn 0 0.5773503 -6.642014E-08
vn 0 0.5773503 -6.642014E-08
vn 0 0.5773503 -6.642014E-08
vn 0 0.5773503 0
vn 0 0.5773503 -6.642014E-08
vn 0 0.5773503 0
vn 0 0.5773503 0
vn 0 0.5773503 0
vt 0.6290139 0.7203177
vt 0.9952281 0.7203177
vt 0.9952281 0.5427002
vt 0.6290139 0.5427002
vt 0.9952281 0.5427002
vt 0.6290139 0.7203177
vt 0.6290139 0.5427002
vt 0.9952281 0.7203177
vt 0.9958324 0.9959021
vt 0.6295391 0.7263778
vt 0.6295391 0.9959021
vt 0.9958324 0.7263778
vt 0.00853978 0.7899196
vt 0.2766637 0.7899196
vt 0.00853978 0.6119294
vt 0.2766637 0.6119294
vt 0.00853978 0.7899196
vt 0.00853978 0.6119294
vt 0.2766637 0.6119294
vt 0.2766637 0.7899196
vt 0.6130083 0.5977216
vt 0.2868912 0.7515013
vt 0.2868912 0.5977216
vt 0.6130083 0.7515013
vt 0.6130083 0.7515013
vt 0.2868912 0.5977216
vt 0.2868912 0.7515013
vt 0.6130083 0.5977216
vt 0.3738631 0.4261842
vt 0.6099349 0.4261842
vt 0.3738631 0.5812027
vt 0.6099349 0.5812027
vt 0.3738631 0.4261842
vt 0.3738631 0.5812027
vt 0.6099348 0.5812027
vt 0.6099348 0.4261842
vt 0.6124208 0.995743
vt 0.4493622 0.8786509
vt 0.2863033 0.995743
vt 0.6124208 0.7615578
vt 0.2863033 0.7615578
vt 0.2745821 0.7976912
vt 0.006461024 0.7976953
vt 0.01645565 0.8072467
vt 0.006464124 0.9949825
vt 0.2645881 0.807243
vt 0.01645839 0.9854308
vt 0.264591 0.9854273
vt 0.2745855 0.9949782
usemtl Tex_Low_TreasureChest_Frugality_Color
f 16/16/16 15/15/15 14/14/14
f 14/14/14 17/17/17 16/16/16
f 20/20/20 19/19/19 18/18/18
f 19/19/19 21/21/21 18/18/18
f 24/24/24 23/23/23 22/22/22
f 23/23/23 25/25/25 22/22/22
f 28/28/28 27/27/27 26/26/26
f 29/29/29 27/27/27 28/28/28
f 32/32/32 31/31/31 30/30/30
f 30/30/30 33/33/33 32/32/32
f 36/36/36 35/35/35 34/34/34
f 35/35/35 37/37/37 34/34/34
f 40/40/40 39/39/39 38/38/38
f 39/39/39 41/41/41 38/38/38
f 44/44/44 43/43/43 42/42/42
f 45/45/45 43/43/43 44/44/44
f 48/48/48 47/47/47 46/46/46
f 46/46/46 49/49/49 48/48/48
f 52/52/52 51/51/51 50/50/50
f 50/50/50 51/51/51 53/53/53
f 54/54/54 51/51/51 52/52/52
f 53/53/53 51/51/51 54/54/54
f 57/57/57 56/56/56 55/55/55
f 56/56/56 57/57/57 58/58/58
f 55/55/55 59/59/59 57/57/57
f 57/57/57 60/60/60 58/58/58
f 61/61/61 59/59/59 55/55/55
f 58/58/58 60/60/60 62/62/62
f 62/62/62 61/61/61 55/55/55
f 60/60/60 61/61/61 62/62/62
g pasted__pasted__obj_Low_lid
v 1.824512 0.3264456 1.2789
v 1.819048 0.782419 1.206905
v -1.824511 0.3264456 1.2789
v -1.819048 0.782419 1.206905
v 1.819048 1.219019 0.7930068
v -1.819048 1.219019 0.7930068
v -1.819048 1.468602 0.2160915
v 1.819049 1.468602 0.2160915
v 1.819049 1.468602 -0.2823848
v -1.819048 1.468602 -0.2823848
v 1.819048 1.219019 -0.8592998
v -1.819048 1.219019 -0.8592998
v 1.819048 0.782419 -1.273198
v -1.819048 0.782419 -1.273198
v 1.824512 0.3264456 -1.345193
v -1.824511 0.3264456 -1.345193
v -1.824511 0.3264456 1.2789
v -1.819048 0.782419 1.206905
v -1.824511 0.3264456 -1.345193
v -1.819048 0.782419 -1.273198
v -1.819048 1.219019 0.7930068
v -1.819048 1.219019 -0.8592998
v -1.819048 1.468602 0.2160915
v -1.819048 1.468602 -0.2823848
v 1.824512 0.3264456 1.2789
v 1.824512 0.3264456 -1.345193
v 1.819048 0.782419 -1.273198
v 1.819048 0.782419 1.206905
v 1.819048 1.219019 -0.8592998
v 1.819048 1.219019 0.7930068
v 1.819049 1.468602 0.2160915
v 1.819049 1.468602 -0.2823848
v 1.966539 0.823211 1.339622
v 1.966539 0.3264456 1.413864
v -1.966539 0.3264456 1.413864
v -1.966539 0.823211 1.339622
v 1.966539 1.305458 0.8814265
v -1.966539 1.305458 0.8814265
v -1.966538 1.581136 0.2427665
v 1.966539 1.581136 0.2427665
v 1.966539 1.581136 -0.3090597
v -1.966538 1.581136 -0.3090597
v 1.966539 1.305458 -0.9477196
v -1.966539 1.305458 -0.9477196
v 1.966539 0.823211 -1.405915
v -1.966539 0.823211 -1.405915
v 1.966539 0.3264456 -1.480157
v -1.966539 0.3264456 -1.480157
v -1.966539 0.823211 1.339622
v -1.966539 0.3264456 1.413864
v -1.966539 0.3264456 -1.480157
v -1.966539 0.823211 -1.405915
v -1.966539 1.305458 0.8814265
v -1.966539 1.305458 -0.9477196
v -1.966538 1.581136 0.2427665
v -1.966538 1.581136 -0.3090597
v 1.966539 0.3264456 1.413864
v 1.966539 0.823211 -1.405915
v 1.966539 0.3264456 -1.480157
v 1.966539 0.823211 1.339622
v 1.966539 1.305458 -0.9477196
v 1.966539 1.305458 0.8814265
v 1.966539 1.581136 0.2427665
v 1.966539 1.581136 -0.3090597
v 0.3451881 0.6062489 1.480157
v 0.3451881 -0.1139119 1.480157
v -0.3451885 -0.1139119 1.480157
v -0.3451885 0.6062489 1.480157
v 0.2844652 0.7610374 1.480157
v -0.2844656 0.7610374 1.480157
v 0.120638 0.8763264 1.480157
v -0.1206384 0.8763264 1.480157
v 0.120638 0.8763264 1.480157
v -0.1206384 0.8763264 1.480157
v 0.120638 0.8763264 1.278932
v -0.1206384 0.8763264 1.278932
v 0.3451881 -0.1139119 1.278932
v -0.3451885 0.6062489 1.278932
v -0.3451885 -0.1139119 1.278932
v 0.3451881 0.6062489 1.278932
v -0.2844656 0.7610374 1.278932
v 0.2844652 0.7610374 1.278932
v -0.1206384 0.8763264 1.278932
v 0.120638 0.8763264 1.278932
v 0.3451881 -0.1139119 1.480157
v -0.3451885 -0.1139119 1.278932
v -0.3451885 -0.1139119 1.480157
v 0.3451881 -0.1139119 1.278932
v 0.3451881 -0.1139119 1.278932
v 0.3451881 -0.1139119 1.480157
v 0.3451881 0.6062489 1.278932
v 0.3451881 0.6062489 1.480157
v 0.2844652 0.7610374 1.278932
v 0.2844652 0.7610374 1.480157
v 0.3451881 0.6062489 1.480157
v 0.120638 0.8763264 1.278932
v 0.120638 0.8763264 1.480157
v -0.3451885 0.6062489 1.480157
v -0.3451885 -0.1139119 1.480157
v -0.3451885 -0.1139119 1.278932
v -0.3451885 0.6062489 1.278932
v -0.2844656 0.7610374 1.480157
v -0.2844656 0.7610374 1.278932
v -0.2844656 0.7610374 1.480157
v -0.1206384 0.8763264 1.480157
v -0.1206384 0.8763264 1.278932
v -1.966539 0.3264456 -1.480157
v -1.824511 0.3264456 -1.345193
v 1.824512 0.3264456 -1.345193
v 1.966539 0.3264456 -1.480157
v -1.966539 0.3264456 1.413864
v 1.824512 0.3264456 1.2789
v -1.824511 0.3264456 1.2789
v 1.966539 0.3264456 1.413864
vn 0 -0.09004426 -0.5702853
vn 0 -0.2753464 -0.507462
vn 0 -0.09004426 -0.5702853
vn 0 -0.2753464 -0.507462
vn 0 -0.47464 -0.3287098
vn 0 -0.47464 -0.3287098
vn 0 -0.5624024 -0.1305254
vn 0 -0.5624024 -0.1305254
vn 0 -0.5624024 0.1305254
vn 0 -0.5624024 0.1305255
vn 0 -0.47464 0.3287098
vn 0 -0.47464 0.3287099
vn 0 -0.2753464 0.507462
vn 0 -0.2753464 0.507462
vn 0 -0.09004426 0.5702853
vn 0 -0.09004426 0.5702853
vn 0.5773088 -0.006917145 0
vn 0.577328 -0.005069733 0
vn 0.5773088 -0.006917145 0
vn 0.577328 -0.005069733 0
vn 0.5773503 0 0
vn 0.5773503 0 0
vn 0.5773503 -4.201343E-07 0
vn 0.5773503 -4.201343E-07 0
vn -0.5773088 -0.006917145 0
vn -0.5773088 -0.006917145 0
vn -0.577328 -0.005069667 0
vn -0.577328 -0.005069667 0
vn -0.5773503 2.584337E-07 0
vn -0.5773503 2.584337E-07 0
vn -0.5773503 4.201343E-07 0
vn -0.5773503 4.201343E-07 0
vn 0 0.2758386 0.5071946
vn 0 0.08533814 0.5710085
vn 0 0.08533814 0.5710085
vn 0 0.2758386 0.5071946
vn 0 0.4749839 0.3282127
vn 0 0.4749839 0.3282128
vn 0 0.5624666 0.1302486
vn 0 0.5624666 0.1302486
vn 0 0.5624666 -0.1302486
vn 0 0.5624666 -0.1302486
vn 0 0.4749839 -0.3282127
vn 0 0.4749839 -0.3282128
vn 0 0.2758386 -0.5071946
vn 0 0.2758386 -0.5071946
vn 0 0.08533814 -0.5710085
vn 0 0.08533814 -0.5710085
vn -0.5773503 -6.037597E-08 0
vn -0.5773503 -6.037597E-08 0
vn -0.5773503 -6.037597E-08 0
vn -0.5773503 -6.037597E-08 0
vn -0.5773503 5.153894E-07 0
vn -0.5773503 5.153894E-07 0
vn -0.5773503 5.153894E-07 0
vn -0.5773503 5.153894E-07 0
vn 0.5773503 8.553263E-08 0
vn 0.5773503 7.621011E-08 0
vn 0.5773503 8.553263E-08 0
vn 0.5773503 7.621011E-08 0
vn 0.5773503 0 0
vn 0.5773503 0 0
vn 0.5773503 -6.871858E-07 0
vn 0.5773503 -6.871858E-07 0
vn 0 0 0.5773503
vn 0 0 0.5773503
vn 0 0 0.5773503
vn 0 0 0.5773503
vn 0 0 0.5773503
vn 0 0 0.5773503
vn 0 0 0.5773503
vn 0 0 0.5773503
vn 0 0.5773503 0
vn 0 0.5773503 0
vn 0 0.5773503 0
vn 0 0.5773503 0
vn 0 0 -0.5773503
vn 0 0 -0.5773503
vn 0 0 -0.5773503
vn 0 0 -0.5773503
vn 0 0 -0.5773503
vn 0 0 -0.5773503
vn 0 0 -0.5773503
vn 0 0 -0.5773503
vn 0 -0.5773503 0
vn 0 -0.5773503 0
vn 0 -0.5773503 0
vn 0 -0.5773503 0
vn 0.5773503 0 0
vn 0.5773503 0 0
vn 0.5759648 0.03997291 0
vn 0.5759648 0.03997291 0
vn 0.4439484 0.3691112 0
vn 0.4439484 0.3691112 0
vn 0.5759648 0.03997291 0
vn 0.3322676 0.4721563 0
vn 0.3322676 0.4721563 0
vn -0.5759648 0.03997291 0
vn -0.5773503 0 0
vn -0.5773503 0 0
vn -0.5759648 0.03997291 0
vn -0.4439484 0.3691112 0
vn -0.4439484 0.3691112 0
vn -0.4439484 0.3691112 0
vn -0.3322676 0.4721563 0
vn -0.3322676 0.4721563 0
vn 0 -0.5773503 1.652916E-07
vn 0 -0.5773503 1.652916E-07
vn 0 -0.5773503 1.652916E-07
vn 0 -0.5773503 1.652916E-07
vn 0 -0.5773503 -1.652916E-07
vn 0 -0.5773503 -1.652916E-07
vn 0 -0.5773503 -1.652916E-07
vn 0 -0.5773503 -1.652916E-07
vt 0.357735 0.004708171
vt 0.3577377 0.05142868
vt 0.01673748 0.004730821
vt 0.01674004 0.05145204
vt 0.357741 0.1133047
vt 0.01674314 0.113326
vt 0.01674858 0.1780319
vt 0.3577452 0.1780083
vt 0.3577481 0.2293375
vt 0.01674858 0.2293591
vt 0.3577514 0.2940413
vt 0.01675503 0.2940644
vt 0.3577557 0.3559166
vt 0.0167568 0.3559394
vt 0.3577574 0.4026374
vt 0.01676136 0.4026602
vt 0.002986431 0.4304746
vt 0.01237273 0.4932749
vt 0.3688438 0.4304746
vt 0.3594584 0.4932749
vt 0.07029653 0.55424
vt 0.3015344 0.55424
vt 0.1510353 0.5890905
vt 0.2207959 0.5890905
vt 0.002986431 0.4304746
vt 0.3688438 0.4304746
vt 0.3594584 0.4932749
vt 0.01237273 0.4932749
vt 0.3015344 0.55424
vt 0.07029653 0.55424
vt 0.1510353 0.5890905
vt 0.2207959 0.5890905
vt 0.3701589 0.05142868
vt 0.370156 0.004708171
vt 0.00431478 0.004730821
vt 0.004317522 0.05145204
vt 0.3701625 0.1133047
vt 0.00432086 0.113326
vt 0.004326701 0.1780319
vt 0.370167 0.1780083
vt 0.3701701 0.2293375
vt 0.004326701 0.2293591
vt 0.3701737 0.2940413
vt 0.004333615 0.2940644
vt 0.3701782 0.3559166
vt 0.004335523 0.3559394
vt 0.3701801 0.4026374
vt 0.00434041 0.4026602
vt 0.01237273 0.4932749
vt 0.002986431 0.4304746
vt 0.3688438 0.4304746
vt 0.3594584 0.4932749
vt 0.07029653 0.55424
vt 0.3015344 0.55424
vt 0.1510353 0.5890905
vt 0.2207959 0.5890905
vt 0.002986431 0.4304746
vt 0.3594584 0.4932749
vt 0.3688438 0.4304746
vt 0.01237273 0.4932749
vt 0.3015344 0.55424
vt 0.07029653 0.55424
vt 0.1510353 0.5890905
vt 0.2207959 0.5890905
vt 0.1792973 0.9154786
vt 0.1792973 0.8454291
vt 0.1121449 0.8454291
vt 0.1121449 0.9154786
vt 0.1733909 0.9305347
vt 0.1180514 0.9305347
vt 0.1574556 0.9417488
vt 0.1339866 0.9417488
vt 0.1574556 0.9417488
vt 0.1339866 0.9417488
vt 0.1575645 0.9619141
vt 0.1340715 0.9619141
vt 0.02710521 0.846085
vt 0.09152922 0.9155342
vt 0.09152922 0.8450562
vt 0.02710521 0.9137383
vt 0.08625605 0.9282796
vt 0.03280967 0.9282796
vt 0.07086581 0.93911
vt 0.04819977 0.93911
vt 0.1792503 0.8453422
vt 0.1125628 0.8259037
vt 0.1121449 0.8454291
vt 0.1792506 0.8259047
vt 0.1999695 0.8452948
vt 0.1792503 0.8453422
vt 0.1999695 0.9152977
vt 0.1792973 0.9154786
vt 0.1855469 0.9433594
vt 0.1733909 0.9305347
vt 0.1792973 0.9154786
vt 0.1575645 0.9619141
vt 0.1574556 0.9417488
vt 0.1121449 0.9154786
vt 0.1121449 0.8454291
vt 0.09152922 0.8450562
vt 0.09152922 0.9155342
vt 0.1180514 0.9305347
vt 0.1025391 0.9453125
vt 0.1180514 0.9305347
vt 0.1339866 0.9417488
vt 0.1340715 0.9619141
vt 0.9830303 0.9945315
vt 0.9705685 0.9826891
vt 0.6503907 0.9826891
vt 0.6379286 0.9945316
vt 0.9830305 0.7406001
vt 0.6503906 0.7524425
vt 0.9705685 0.7524424
vt 0.6379288 0.7406
usemtl Tex_Low_TreasureChest_Frugality_Color
f 65/65/65 64/64/64 63/63/63
f 64/64/64 65/65/65 66/66/66
f 66/66/66 67/67/67 64/64/64
f 67/67/67 66/66/66 68/68/68
f 67/67/67 68/68/68 69/69/69
f 69/69/69 70/70/70 67/67/67
f 69/69/69 71/71/71 70/70/70
f 71/71/71 69/69/69 72/72/72
f 73/73/73 71/71/71 72/72/72
f 72/72/72 74/74/74 73/73/73
f 75/75/75 73/73/73 74/74/74
f 74/74/74 76/76/76 75/75/75
f 77/77/77 75/75/75 76/76/76
f 76/76/76 78/78/78 77/77/77
f 81/81/81 80/80/80 79/79/79
f 81/81/81 82/82/82 80/80/80
f 82/82/82 83/83/83 80/80/80
f 82/82/82 84/84/84 83/83/83
f 84/84/84 85/85/85 83/83/83
f 84/84/84 86/86/86 85/85/85
f 89/89/89 88/88/88 87/87/87
f 87/87/87 90/90/90 89/89/89
f 90/90/90 91/91/91 89/89/89
f 90/90/90 92/92/92 91/91/91
f 91/91/91 92/92/92 93/93/93
f 93/93/93 94/94/94 91/91/91
f 97/97/97 96/96/96 95/95/95
f 98/98/98 97/97/97 95/95/95
f 98/98/98 95/95/95 99/99/99
f 100/100/100 98/98/98 99/99/99
f 101/101/101 100/100/100 99/99/99
f 99/99/99 102/102/102 101/101/101
f 101/101/101 102/102/102 103/103/103
f 103/103/103 104/104/104 101/101/101
f 103/103/103 105/105/105 104/104/104
f 105/105/105 106/106/106 104/104/104
f 106/106/106 105/105/105 107/107/107
f 107/107/107 108/108/108 106/106/106
f 108/108/108 107/107/107 109/109/109
f 110/110/110 108/108/108 109/109/109
f 113/113/113 112/112/112 111/111/111
f 111/111/111 114/114/114 113/113/113
f 111/111/111 115/115/115 114/114/114
f 115/115/115 116/116/116 114/114/114
f 115/115/115 117/117/117 116/116/116
f 117/117/117 118/118/118 116/116/116
f 121/121/121 120/120/120 119/119/119
f 122/122/122 119/119/119 120/120/120
f 120/120/120 123/123/123 122/122/122
f 123/123/123 124/124/124 122/122/122
f 125/125/125 124/124/124 123/123/123
f 123/123/123 126/126/126 125/125/125
f 129/129/129 128/128/128 127/127/127
f 130/130/130 129/129/129 127/127/127
f 127/127/127 131/131/131 130/130/130
f 131/131/131 132/132/132 130/130/130
f 131/131/131 133/133/133 132/132/132
f 133/133/133 134/134/134 132/132/132
f 137/137/137 136/136/136 135/135/135
f 137/137/137 138/138/138 136/136/136
f 141/141/141 140/140/140 139/139/139
f 140/140/140 142/142/142 139/139/139
f 140/140/140 143/143/143 142/142/142
f 143/143/143 144/144/144 142/142/142
f 143/143/143 145/145/145 144/144/144
f 145/145/145 146/146/146 144/144/144
f 149/149/149 148/148/148 147/147/147
f 148/148/148 150/150/150 147/147/147
f 153/153/153 152/152/152 151/151/151
f 152/152/152 153/153/153 154/154/154
f 153/153/153 155/155/155 154/154/154
f 157/157/157 155/155/155 156/156/156
f 155/155/155 158/158/158 156/156/156
f 156/156/156 158/158/158 159/159/159
f 162/162/162 161/161/161 160/160/160
f 160/160/160 163/163/163 162/162/162
f 163/163/163 160/160/160 164/164/164
f 166/166/166 165/165/165 163/163/163
f 165/165/165 166/166/166 167/167/167
f 167/167/167 168/168/168 165/165/165
f 171/171/171 170/170/170 169/169/169
f 172/172/172 171/171/171 169/169/169
f 169/169/169 170/170/170 173/173/173
f 174/174/174 171/171/171 172/172/172
f 170/170/170 175/175/175 173/173/173
f 176/176/176 174/174/174 172/172/172
f 173/173/173 175/175/175 176/176/176
f 175/175/175 174/174/174 176/176/176
